<?xml version="1.0" standalone="no"?>
<!DOCTYPE svg PUBLIC "-//W3C//DTD SVG 20010904//EN"
 "http://www.w3.org/TR/2001/REC-SVG-20010904/DTD/svg10.dtd">
<svg version="1.0" xmlns="http://www.w3.org/2000/svg"
 width="101.000000pt" height="101.000000pt" viewBox="0 0 101.000000 101.000000"
 preserveAspectRatio="xMidYMid meet">
<metadata>
Created by potrace 1.14, written by Peter Selinger 2001-2017
</metadata>
<g transform="translate(0.000000,101.000000) scale(0.100000,-0.100000)"
fill="#000000" stroke="none">
<path d="M428 768 c-22 -6 -49 -24 -64 -41 -15 -18 -45 -39 -68 -47 -50 -19
-83 -65 -80 -111 3 -56 3 -58 24 -79 15 -15 18 -25 11 -37 -6 -12 -4 -30 7
-58 20 -52 18 -50 60 -50 36 0 37 -1 37 -35 0 -31 5 -37 43 -57 47 -24 68 -22
77 8 6 19 45 27 45 10 0 -5 7 -16 15 -25 24 -23 101 8 114 46 7 20 7 27 0 22
-7 -4 -9 1 -7 12 2 14 12 19 37 19 28 0 38 6 53 32 11 17 20 42 22 55 1 13 10
39 18 58 9 19 14 46 11 60 -5 29 -40 70 -60 70 -8 0 -25 13 -39 29 -13 16 -36
32 -50 35 -14 4 -37 20 -51 37 -24 28 -83 60 -107 58 -6 -1 -28 -6 -48 -11z
m118 -48 c2 0 10 -13 19 -30 9 -16 22 -30 30 -30 26 0 63 -22 73 -45 6 -13 23
-25 39 -28 35 -7 54 -42 42 -75 -11 -29 -38 -39 -97 -35 -26 1 -114 3 -195 3
-86 0 -157 5 -169 11 -11 6 -26 25 -33 42 -23 55 15 113 80 124 20 3 35 11 35
19 0 20 40 53 75 63 20 5 41 4 64 -5 18 -8 35 -14 37 -14z m-171 -301 c4 -10
25 -30 47 -43 70 -42 164 -22 199 42 10 17 21 22 56 22 45 0 50 -7 32 -42 -8
-15 -17 -18 -36 -13 -36 9 -76 -36 -63 -70 8 -21 5 -25 -22 -34 -17 -6 -32
-10 -32 -9 -10 30 -27 42 -59 43 -20 0 -37 -4 -37 -10 -1 -27 -16 -35 -48 -24
-28 9 -30 13 -20 33 8 20 6 28 -17 51 -23 23 -31 25 -51 17 -20 -10 -24 -8
-33 20 -13 38 -5 46 44 40 22 -3 36 -11 40 -23z m210 1 c-44 -49 -132 -47
-175 4 -11 14 -1 16 90 16 102 0 103 0 85 -20z"/>
</g>
</svg>
